0
SECTION
2
HEADER
9
$INSUNITS
70
4
9
$ACADVER
1
AC1014
9
$HANDSEED
5
FFFF
0
ENDSEC
0
SECTION
2
TABLES
0
TABLE
2
VPORT
5
8
100
AcDbSymbolTable
0
ENDTAB
0
TABLE
2
LTYPE
5
5
100
AcDbSymbolTable
0
LTYPE
5
14
100
AcDbSymbolTableRecord
100
AcDbLinetypeTableRecord
2
BYBLOCK
70
0
0
LTYPE
5
15
100
AcDbSymbolTableRecord
100
AcDbLinetypeTableRecord
2
BYLAYER
70
0
0
ENDTAB
0
TABLE
2
LAYER
5
2
100
AcDbSymbolTable
70
2
0
LAYER
5
50
100
AcDbSymbolTableRecord
100
AcDbLayerTableRecord
2
0
70
0
6
CONTINUOUS
0
ENDTAB
0
TABLE
2
STYLE
5
3
100
AcDbSymbolTable
70
1
0
STYLE
5
11
100
AcDbSymbolTableRecord
100
AcDbTextStyleTableRecord
2
STANDARD
70
0
0
ENDTAB
0
TABLE
2
VIEW
5
6
100
AcDbSymbolTable
70
0
0
ENDTAB
0
TABLE
2
UCS
5
7
100
AcDbSymbolTable
70
0
0
ENDTAB
0
TABLE
2
APPID
5
9
100
AcDbSymbolTable
70
2
0
APPID
5
12
100
AcDbSymbolTableRecord
100
AcDbRegAppTableRecord
2
ACAD
70
0
0
ENDTAB
0
TABLE
2
DIMSTYLE
5
A
100
AcDbSymbolTable
70
1
0
ENDTAB
0
TABLE
2
BLOCK_RECORD
5
1
100
AcDbSymbolTable
70
1
0
BLOCK_RECORD
5
1F
100
AcDbSymbolTableRecord
100
AcDbBlockTableRecord
2
*MODEL_SPACE
0
BLOCK_RECORD
5
1B
100
AcDbSymbolTableRecord
100
AcDbBlockTableRecord
2
*PAPER_SPACE
0
ENDTAB
0
ENDSEC
0
SECTION
2
BLOCKS
0
BLOCK
5
20
100
AcDbEntity
100
AcDbBlockBegin
2
*MODEL_SPACE
0
ENDBLK
5
21
100
AcDbEntity
100
AcDbBlockEnd
0
BLOCK
5
1C
100
AcDbEntity
100
AcDbBlockBegin
2
*PAPER_SPACE
0
ENDBLK
5
1D
100
AcDbEntity
100
AcDbBlockEnd
0
ENDSEC
0
SECTION
2
ENTITIES
0
LWPOLYLINE
5
100
100
AcDbEntity
8
0
100
AcDbPolyline
90
18
70
1
43
0.0
10
101.47500004717747
20
-41.025003034095718
10
101.47500004717867
20
-41.175003034042881
10
106.97500004717867
20
-41.175003034044664
10
106.97500004718358
20
-39.675003034044664
10
108.47500004718358
20
-39.675003034046533
10
108.47500004719893
20
-37.675003034046533
10
106.97500004719896
20
-37.675003034047513
10
106.97500004719878
20
-36.175003034047506
10
102.7750000471988
20
-36.175003034047542
42
-0.41421361951419022
10
101.77500004719687
20
-35.175002838953702
10
101.77500004713296
20
-34.025002649802531
10
96.575000047132974
20
-34.025002649802538
10
96.57500004713367
20
-35.525002649802538
10
94.57500004713367
20
-35.52500264980273
10
94.575000047133756
20
-37.525002649802857
10
96.575000047133756
20
-37.525003034095938
10
96.575000047133813
20
-39.025003034095917
10
99.47500004717746
20
-39.025003034095825
42
-0.4142135623730937
0
LWPOLYLINE
5
101
100
AcDbEntity
8
0
100
AcDbPolyline
90
18
70
1
43
0.0
10
101.47500004717747
20
-60.025003034095718
10
101.47500004717867
20
-60.175003034042874
10
106.97500004717867
20
-60.175003034044671
10
106.97500004718358
20
-58.675003034044678
10
108.47500004718358
20
-58.67500303404654
10
108.47500004719893
20
-56.675003034046526
10
106.97500004719896
20
-56.675003034047513
10
106.97500004719878
20
-55.175003034047513
10
102.7750000471988
20
-55.175003034047535
42
-0.41421361951419022
10
101.77500004719687
20
-54.175002838953709
10
101.77500004713296
20
-53.025002649802531
10
96.575000047132974
20
-53.025002649802538
10
96.57500004713367
20
-54.525002649802531
10
94.57500004713367
20
-54.52500264980273
10
94.575000047133756
20
-56.525002649802857
10
96.575000047133756
20
-56.525003034095946
10
96.575000047133784
20
-58.025003034095938
10
99.475000047177446
20
-58.025003034095832
42
-0.41421356237309503
0
LWPOLYLINE
5
102
100
AcDbEntity
8
0
100
AcDbPolyline
90
18
70
1
43
0.0
10
63.475000047172585
20
-17.275001608586106
10
63.47500004717314
20
-17.42500160858766
10
68.97500004717314
20
-17.425001608589195
10
68.975000047164997
20
-15.925001608589193
10
70.475000047164997
20
-15.925001608587388
10
70.475000047168464
20
-13.925001608587388
10
68.975000047168464
20
-13.925001608587873
10
68.975000047168436
20
-12.425001608587872
10
64.775000047168447
20
-12.425001608587889
42
-0.41421359078363712
10
63.775000047150137
20
-11.425001511569944
10
63.775000047133659
20
-10.275001416440146
10
58.57500004713367
20
-10.275001416440158
10
58.575000047133976
20
-11.77500141644016
10
56.575000047133976
20
-11.775001416440183
10
56.574999037397461
20
-13.775001416439958
10
58.574999037397461
20
-13.775001608586468
10
58.575000047135674
20
-15.275001608586127
10
61.475000047172614
20
-15.27500160858613
42
-0.41421356237309503
0
LWPOLYLINE
5
103
100
AcDbEntity
8
0
100
AcDbPolyline
90
18
70
1
43
0.0
10
44.475000047132561
20
-57.675003974405499
10
44.475000047132561
20
-57.825003974405433
10
49.975000047132561
20
-57.825003974403906
10
49.975000047132561
20
-56.325003974403899
10
51.475000047132568
20
-56.325003974404396
10
51.475000047133733
20
-54.325003974404396
10
49.975000047133733
20
-54.325003974404268
10
49.975000047133733
20
-52.825003974404261
10
45.77500004713373
20
-52.825003974404282
42
-0.41421356237309503
10
44.775000047133972
20
-51.82500397440451
10
44.77500004713395
20
-50.67500397440498
10
39.575000047133962
20
-50.675003974404987
10
39.575000047133663
20
-52.175003974405527
10
37.57500004713367
20
-52.175003974405492
10
37.57500004713367
20
-54.175003974405485
10
39.575000047133678
20
-54.175003974405492
10
39.575000047133678
20
-55.675003974405485
10
42.475000047132554
20
-55.675003974405485
42
-0.41421356237309503
0
LWPOLYLINE
5
104
100
AcDbEntity
8
0
100
AcDbPolyline
90
18
70
1
43
0.0
10
44.475000047132561
20
-38.675003974405499
10
44.475000047132561
20
-38.825003974405433
10
49.975000047132561
20
-38.825003974403899
10
49.975000047132561
20
-37.325003974403906
10
51.475000047132568
20
-37.325003974404396
10
51.475000047133733
20
-35.325003974404396
10
49.975000047133733
20
-35.325003974404268
10
49.975000047133733
20
-33.825003974404261
10
45.77500004713373
20
-33.825003974404268
42
-0.41421356237309243
10
44.775000047133972
20
-32.825003974404517
10
44.77500004713395
20
-31.67500397440498
10
39.575000047133962
20
-31.675003974404991
10
39.575000047133663
20
-33.175003974405527
10
37.57500004713367
20
-33.175003974405499
10
37.57500004713367
20
-35.175003974405485
10
39.575000047133678
20
-35.175003974405492
10
39.575000047133678
20
-36.675003974405485
10
42.475000047132554
20
-36.675003974405492
42
-0.41421356237309503
0
LWPOLYLINE
5
105
100
AcDbEntity
8
0
100
AcDbPolyline
90
18
70
1
43
0.0
10
72.975000047165665
20
-77.314327317481911
10
72.975000047162212
20
-77.464327317487999
10
78.475000047162212
20
-77.464327317494138
10
78.47500004713892
20
-75.964327317494138
10
79.97500004713892
20
-75.964327317488355
10
79.975000047077828
20
-73.96432731748834
10
78.475000047077842
20
-73.964327317486905
10
78.475000047078026
20
-72.464327317486919
10
74.275000047078024
20
-72.464327317486919
42
-0.41421356237309503
10
73.275000047072055
20
-71.464327317480951
10
73.275000047129694
20
-70.31432847036244
10
68.075000047129691
20
-70.31432847036244
10
68.07500004713367
20
-71.81432847036244
10
66.075000047133685
20
-71.814328470361758
10
66.075000047133742
20
-73.814328470361772
10
68.075000047133457
20
-73.814327317482253
10
68.0750000471335
20
-75.314327317482267
10
70.975000047165778
20
-75.314327317482167
42
-0.41421356237309631
0
CIRCLE
5
106
100
AcDbEntity
8
0
100
AcDbCircle
10
116.82507573268239
20
-54.825003974405526
30
0
40
1.9999999999999929
210
0
220
0
230
1
0
CIRCLE
5
107
100
AcDbEntity
8
0
100
AcDbCircle
10
131.32507573268239
20
-63.325003974405519
30
0
40
1.9999999999999929
210
0
220
0
230
1
0
LWPOLYLINE
5
108
100
AcDbEntity
8
0
100
AcDbPolyline
90
18
70
1
43
0.0
10
91.898280356500834
20
-79.042802563780356
10
91.859457499688787
20
-79.187691437772031
10
97.172049544276604
20
-80.611196185843625
10
97.56027811194393
20
-79.162307446441972
10
99.009166851378296
20
-79.550536014092913
10
99.526804941543929
20
-77.618684361543814
10
98.077916202110174
20
-77.230455793890712
10
98.466144769763844
20
-75.781567054457099
10
94.409256299383571
20
-74.694527065072606
42
-0.4142135623657352
10
93.702149518186275
20
-73.469782193697782
10
93.999791270923154
20
-72.358968050141726
10
88.976976974220008
20
-71.01310901560862
10
88.588748406568158
20
-72.461997755042717
10
86.656896753989912
20
-71.944359664838103
10
86.139257688453483
20
-73.876211056076727
10
88.071109490225155
20
-74.393848589483682
10
87.682881897903698
20
-75.842737590256405
10
90.484066794121986
20
-76.593312821020106
42
-0.41421356236970175
0
LWPOLYLINE
5
109
100
AcDbEntity
8
0
100
AcDbPolyline
90
18
70
1
43
0.0
10
101.47500004717747
20
-22.025003034095718
10
101.47500004717867
20
-22.175003034042877
10
106.97500004717867
20
-22.175003034044664
10
106.97500004718358
20
-20.675003034044668
10
108.47500004718358
20
-20.675003034046533
10
108.47500004719893
20
-18.675003034046533
10
106.97500004719896
20
-18.675003034047506
10
106.97500004719878
20
-17.175003034047506
10
102.7750000471988
20
-17.175003034047531
42
-0.41421361951419022
10
101.77500004719687
20
-16.175002838953702
10
101.77500004713296
20
-15.025002649802524
10
96.575000047132974
20
-15.025002649802538
10
96.57500004713367
20
-16.525002649802538
10
94.57500004713367
20
-16.525002649802726
10
94.575000047133756
20
-18.525002649802854
10
96.575000047133756
20
-18.525003034095931
10
96.575000047133784
20
-20.025003034095931
10
99.475000047177446
20
-20.025003034095828
42
-0.4142135623730957
0
LWPOLYLINE
5
110
100
AcDbEntity
8
0
100
AcDbPolyline
90
18
70
1
43
0.0
10
82.475000047092152
20
-57.675001032147065
10
82.475000047090958
20
-57.825001032145558
10
87.975000047090958
20
-57.825001032142502
10
87.975000047086411
20
-56.325001032142495
10
89.475000047086425
20
-56.325001032144762
10
89.475000047071205
20
-54.325001032144762
10
87.975000047071191
20
-54.325001032144165
10
87.975000047071262
20
-52.825001032144172
10
83.775000047071273
20
-52.825001032144186
42
-0.41421350539307911
10
82.775000047069369
20
-51.825001226684222
10
82.775000047134569
20
-50.675001416440153
10
77.57500004713458
20
-50.675001416440175
10
77.57500004713367
20
-52.175001416440168
10
75.57500004713367
20
-52.175001416440125
10
75.575000047133685
20
-54.175001416440111
10
77.575000047133642
20
-54.175001032147094
10
77.575000047133628
20
-55.675001032147087
10
80.47500004709218
20
-55.675001032147087
42
-0.41421356237309503
0
LWPOLYLINE
5
111
100
AcDbEntity
8
0
100
AcDbPolyline
90
18
70
1
43
0.0
10
82.475000047092152
20
-38.675001032147058
10
82.475000047090958
20
-38.825001032145551
10
87.975000047090958
20
-38.825001032142495
10
87.975000047086411
20
-37.325001032142495
10
89.475000047086425
20
-37.325001032144762
10
89.475000047071205
20
-35.325001032144755
10
87.975000047071191
20
-35.325001032144165
10
87.975000047071262
20
-33.825001032144165
10
83.775000047071273
20
-33.825001032144193
42
-0.41421350539308044
10
82.775000047069369
20
-32.825001226684222
10
82.775000047134569
20
-31.675001416440153
10
77.57500004713458
20
-31.675001416440168
10
77.57500004713367
20
-33.175001416440168
10
75.57500004713367
20
-33.175001416440118
10
75.575000047133685
20
-35.175001416440104
10
77.575000047133642
20
-35.175001032147087
10
77.575000047133628
20
-36.67500103214708
10
80.47500004709218
20
-36.67500103214708
42
-0.41421356237309503
0
LWPOLYLINE
5
112
100
AcDbEntity
8
0
100
AcDbPolyline
90
18
70
1
43
0.0
10
82.475000047092152
20
-19.675001032147055
10
82.475000047090958
20
-19.825001032145551
10
87.975000047090958
20
-19.825001032142492
10
87.975000047086411
20
-18.325001032142488
10
89.475000047086425
20
-18.325001032144755
10
89.475000047071205
20
-16.325001032144758
10
87.975000047071191
20
-16.325001032144158
10
87.975000047071262
20
-14.825001032144161
10
83.775000047071273
20
-14.825001032144186
42
-0.41421350539308111
10
82.775000047069369
20
-13.825001226684211
10
82.775000047134569
20
-12.67500141644015
10
77.57500004713458
20
-12.675001416440164
10
77.57500004713367
20
-14.175001416440162
10
75.57500004713367
20
-14.175001416440114
10
75.575000047133685
20
-16.175001416440097
10
77.575000047133642
20
-16.175001032147087
10
77.575000047133628
20
-17.675001032147076
10
80.47500004709218
20
-17.67500103214708
42
-0.41421356237309503
0
LWPOLYLINE
5
113
100
AcDbEntity
8
0
100
AcDbPolyline
90
18
70
1
43
0.0
10
63.475000047172585
20
-55.275001608586109
10
63.47500004717314
20
-55.425001608587664
10
68.97500004717314
20
-55.425001608589206
10
68.975000047164997
20
-53.925001608589199
10
70.475000047164997
20
-53.925001608587394
10
70.475000047168464
20
-51.925001608587394
10
68.975000047168464
20
-51.925001608587884
10
68.975000047168436
20
-50.425001608587877
10
64.775000047168433
20
-50.425001608587898
42
-0.41421359078363845
10
63.775000047150137
20
-49.425001511569953
10
63.775000047133659
20
-48.275001416440155
10
58.57500004713367
20
-48.275001416440162
10
58.575000047133976
20
-49.775001416440162
10
56.575000047133976
20
-49.77500141644019
10
56.574999037397461
20
-51.775001416439963
10
58.574999037397461
20
-51.775001608586479
10
58.575000047135674
20
-53.27500160858613
10
61.475000047172614
20
-53.27500160858613
42
-0.41421356237309503
0
LWPOLYLINE
5
114
100
AcDbEntity
8
0
100
AcDbPolyline
90
18
70
1
43
0.0
10
25.47500004713395
20
-62.375003974386907
10
25.47500004713395
20
-62.525003974393769
10
30.975000047133953
20
-62.525003974393769
10
30.975000047143372
20
-61.025003974415156
10
32.475000047143368
20
-61.025003974420699
10
32.475000047134543
20
-59.025003974411945
10
30.975000047134543
20
-59.025003974411746
10
30.975000047134582
20
-57.525003974418205
10
26.775000047134579
20
-57.525003974411831
42
-0.4142135623730937
10
25.775000047134814
20
-56.52500397441208
10
25.775000047133201
20
-55.375003974405494
10
20.575000047133194
20
-55.375003974405516
10
20.57500004713367
20
-56.875003974405516
10
18.575000047133667
20
-56.875003974405573
10
18.575000047133667
20
-58.875003974405573
10
20.575000047133667
20
-58.875003974405573
10
20.57500004713367
20
-60.375003974405566
10
23.475000047152584
20
-60.375003974405544
42
-0.41421356237309503
0
LWPOLYLINE
5
115
100
AcDbEntity
8
0
100
AcDbPolyline
90
18
70
1
43
0.0
10
25.47500004713395
20
-43.375003974386921
10
25.47500004713395
20
-43.525003974393769
10
30.975000047133953
20
-43.525003974393769
10
30.975000047143372
20
-42.025003974415149
10
32.475000047143368
20
-42.025003974420699
10
32.475000047134543
20
-40.025003974411952
10
30.975000047134543
20
-40.02500397441176
10
30.975000047134582
20
-38.525003974418198
10
26.775000047134579
20
-38.525003974411838
42
-0.41421356237309631
10
25.775000047134814
20
-37.525003974412073
10
25.775000047133201
20
-36.375003974405502
10
20.575000047133194
20
-36.375003974405516
10
20.57500004713367
20
-37.875003974405523
10
18.575000047133667
20
-37.875003974405573
10
18.575000047133667
20
-39.875003974405573
10
20.575000047133667
20
-39.875003974405573
10
20.57500004713367
20
-41.375003974405558
10
23.475000047152584
20
-41.375003974405544
42
-0.41421356237309764
0
LWPOLYLINE
5
116
100
AcDbEntity
8
0
100
AcDbPolyline
90
18
70
1
43
0.0
10
25.47500004713395
20
-24.525003974393766
10
30.975000047133953
20
-24.525003974393766
10
30.975000047143372
20
-23.025003974415149
10
32.475000047143368
20
-23.025003974420692
10
32.475000047134543
20
-21.025003974411952
10
30.975000047134543
20
-21.02500397441176
10
30.975000047134582
20
-19.525003974418205
10
26.775000047134583
20
-19.525003974411838
42
-0.4142135623730957
10
25.775000047134814
20
-18.52500397441208
10
25.775000047133201
20
-17.375003974405502
10
20.575000047133194
20
-17.375003974405519
10
20.57500004713367
20
-18.875003974405519
10
18.575000047133667
20
-18.875003974405573
10
18.575000047133667
20
-20.875003974405573
10
20.575000047133667
20
-20.875003974405573
10
20.57500004713367
20
-22.375003974405573
10
23.475000047152584
20
-22.375003974405544
42
-0.41421356237309631
10
25.47500004713395
20
-24.375003974386917
0
LWPOLYLINE
5
117
100
AcDbEntity
8
0
100
AcDbPolyline
90
18
70
1
43
0.0
10
63.475000047172585
20
-36.275001608586102
10
63.47500004717314
20
-36.425001608587664
10
68.97500004717314
20
-36.425001608589199
10
68.975000047164997
20
-34.925001608589199
10
70.475000047164997
20
-34.925001608587394
10
70.475000047168464
20
-32.925001608587394
10
68.975000047168464
20
-32.925001608587877
10
68.975000047168436
20
-31.425001608587873
10
64.775000047168447
20
-31.425001608587895
42
-0.41421359078363712
10
63.775000047150137
20
-30.425001511569949
10
63.775000047133659
20
-29.275001416440148
10
58.57500004713367
20
-29.275001416440162
10
58.575000047133976
20
-30.775001416440162
10
56.575000047133976
20
-30.77500141644019
10
56.574999037397461
20
-32.775001416439963
10
58.574999037397461
20
-32.775001608586471
10
58.575000047135681
20
-34.27500160858613
10
61.475000047172614
20
-34.27500160858613
42
-0.41421356237309503
0
CIRCLE
5
118
100
AcDbEntity
8
0
100
AcDbCircle
10
108.32507573268236
20
-69.575003974405533
30
0
40
1.9999999999999929
210
0
220
0
230
1
0
CIRCLE
5
119
100
AcDbEntity
8
0
100
AcDbCircle
10
61.825000047133678
20
-61.825038043155018
30
0
40
2.0000000000000018
210
0
220
0
230
1
0
LWPOLYLINE
5
120
100
AcDbEntity
8
0
100
AcDbPolyline
90
18
70
1
43
0.0
10
124.66062723795778
20
-81.977836355534066
10
124.7905310481637
20
-82.052836355362828
10
127.54053104817058
20
-77.289696634552371
10
126.24149294252831
20
-76.539696634547596
10
126.99149294252577
20
-75.240658528869432
10
125.25944213497475
20
-74.240658528915034
10
124.50944213497536
20
-75.539696634592019
10
123.21040402929866
20
-74.789696634592133
10
121.11040402935194
20
-78.42700333046605
42
-0.41421356238045159
10
119.74437862553741
20
-78.793028734240067
10
118.74844991033895
20
-78.218029022393139
10
116.14844991033894
20
-82.721361122072224
10
117.44748801601659
20
-83.471361122070505
10
116.44748801601696
20
-85.203411929639572
10
118.17953831871691
20
-86.203412804097695
10
119.17953781950541
20
-84.471361708309004
10
120.47857643005085
20
-85.221360833849857
10
121.92857643000848
20
-82.70988716289375
42
-0.41421356243810442
0
CIRCLE
5
121
100
AcDbEntity
8
0
100
AcDbCircle
10
18.575000047133667
20
-25.825038043155022
30
0
40
1.9999999999999996
210
0
220
0
230
1
0
CIRCLE
5
122
100
AcDbEntity
8
0
100
AcDbCircle
10
18.57500004713367
20
-44.575038043155018
30
0
40
2.0000000000000018
210
0
220
0
230
1
0
CIRCLE
5
123
100
AcDbEntity
8
0
100
AcDbCircle
10
94.575075732682379
20
-22.075003974405519
30
0
40
1.9999999999999929
210
0
220
0
230
1
0
LWPOLYLINE
5
124
100
AcDbEntity
8
0
100
AcDbPolyline
90
18
70
1
43
0.0
10
44.475000047132561
20
-19.675003974405499
10
44.475000047132561
20
-19.82500397440543
10
49.975000047132561
20
-19.825003974403906
10
49.975000047132561
20
-18.325003974403906
10
51.475000047132568
20
-18.325003974404392
10
51.475000047133733
20
-16.325003974404392
10
49.975000047133733
20
-16.325003974404261
10
49.975000047133733
20
-14.825003974404263
10
45.77500004713373
20
-14.825003974404272
42
-0.4142135623730937
10
44.775000047133972
20
-13.82500397440451
10
44.77500004713395
20
-12.675003974404977
10
39.575000047133962
20
-12.675003974404991
10
39.575000047133663
20
-14.17500397440552
10
37.57500004713367
20
-14.175003974405493
10
37.57500004713367
20
-16.175003974405485
10
39.575000047133678
20
-16.175003974405485
10
39.575000047133678
20
-17.675003974405488
10
42.475000047132554
20
-17.675003974405488
42
-0.41421356237309503
0
LWPOLYLINE
5
125
100
AcDbEntity
8
0
100
AcDbPolyline
90
90
70
1
43
0.0
10
0.07500004713366662
20
-62.825038043155025
10
0.075000047133666842
20
-58.875003967714704
10
1.5750000471336669
20
-58.875003957421157
10
1.5750000265465578
20
-60.375003978522948
10
4.4750000292920742
20
-60.375003978522955
42
-0.41421356237309498
10
6.4750000325691994
20
-62.375003981800077
10
6.475000029824316
20
-62.575004012148582
10
11.975000029824317
20
-62.575004087634809
10
11.975000047134438
20
-61.075004087634817
10
13.47500004713444
20
-61.07500410822189
10
13.475000047134438
20
-59.07500410822189
10
11.975000047134436
20
-59.075004108221911
10
11.975000047134435
20
-57.575004108221904
10
7.7750000471338501
20
-57.575004108221904
42
-0.41421356237309503
10
6.7750000471340854
20
-56.575004108222146
10
6.7750000471336671
20
-55.375003974405502
10
1.5750000471336667
20
-55.375003974405516
10
1.5750000471336629
20
-56.875003974405523
10
0.075000047133666481
20
-56.87500397440553
10
0.075000047133666717
20
-39.875003967714711
10
1.5750000471336669
20
-39.875003957421157
10
1.5750000265465578
20
-41.375003978522962
10
4.4750000292920742
20
-41.375003978522955
42
-0.41421356237309626
10
6.4750000325691994
20
-43.375003981800084
10
6.475000029824316
20
-43.575004012148575
10
11.975000029824317
20
-43.575004087634817
10
11.975000047134438
20
-42.075004087634809
10
13.47500004713444
20
-42.075004108221904
10
13.475000047134438
20
-40.07500410822189
10
11.975000047134436
20
-40.075004108221904
10
11.975000047134435
20
-38.575004108221904
10
7.7750000471338501
20
-38.575004108221904
42
-0.41421356237309503
10
6.7750000471340854
20
-37.575004108222139
10
6.7750000471336671
20
-36.375003974405509
10
1.5750000471336667
20
-36.375003974405523
10
1.5750000471336629
20
-37.875003974405523
10
0.075000047133666758
20
-37.875003974405523
10
0.075000047133666842
20
-20.875003967714715
10
1.5750000471336669
20
-20.875003957421153
10
1.5750000265465578
20
-22.375003978522955
10
4.4750000292920742
20
-22.375003978522955
42
-0.41421356237309559
10
6.4750000325691994
20
-24.375003981800084
10
6.475000029824316
20
-24.575004012148582
10
11.975000029824317
20
-24.575004087634813
10
11.975000047134438
20
-23.075004087634813
10
13.47500004713444
20
-23.075004108221897
10
13.475000047134438
20
-21.07500410822189
10
11.975000047134436
20
-21.075004108221908
10
11.975000047134435
20
-19.575004108221904
10
7.7750000471338501
20
-19.575004108221904
42
-0.41421356237309503
10
6.7750000471340854
20
-18.575004108222142
10
6.7750000471336671
20
-17.375003974405509
10
1.5750000471336667
20
-17.375003974405519
10
1.5750000471336629
20
-18.875003974405523
10
0.075000047133666758
20
-18.875003974405526
10
0.075000047133666897
20
-7.5750039744055231
42
-0.4142135623730942
10
0.5750000471336626
20
-7.0750039744055213
10
37.575023178165971
20
-7.0750039744055195
42
0.41421356237309698
10
38.075023178165971
20
-6.5750039744055178
10
38.075023178165971
20
-2.8250014164401618
42
-0.41421356237308754
10
38.575023178165971
20
-2.3250014164401618
10
56.575034069346074
20
-2.3250014164401618
42
0.41421373480298995
10
57.075034363702287
20
-1.8250014164401582
10
57.075034363702287
20
-0.57500004713366615
42
-0.41421356237309803
10
57.575034363702287
20
-0.07500004713366655
10
74.57504114582666
20
-0.075000047133667314
42
-0.41421356237309553
10
75.07504114582666
20
-0.57500004713366648
10
75.07504114582666
20
-1.8250014164401618
42
0.41421356237309537
10
75.57504114582666
20
-2.3250014164401605
10
93.575052037006756
20
-2.325001416440251
42
-0.41421373480298151
10
94.075052331362983
20
-2.8250014164401627
10
94.075052331362983
20
-4.3250026498025349
42
0.41421356237307944
10
94.575052331362969
20
-4.8250026498025331
10
112.57506322254306
20
-4.8250026498026264
42
-0.4142137348029607
10
113.07506351689929
20
-5.3250026498025385
10
113.07506351689929
20
-6.5750039744055204
42
0.41421356237306839
10
113.57506351689929
20
-7.0750039744055169
10
133.32507543832617
20
-7.075003974405611
42
-0.41421373480298407
10
133.82507573268239
20
-7.5750039744055275
10
133.82507573268239
20
-67.401128468709359
42
-0.1315543359181067
10
133.7581848928258
20
-67.650961323634135
10
120.38304954921995
20
-90.838038288421572
42
-0.41421356237309503
10
118.60740031004264
20
-91.314556681990013
10
104.13670542797513
20
-82.967342289352047
42
0.098782953010148083
10
103.95137172155486
20
-82.904629041931827
10
66.765254532532751
20
-78.067266191254873
42
-0.20559372655326105
10
66.425847269210038
20
-77.866163329166
10
55.965370413646845
20
-63.530318497680256
42
0.23953790219114787
10
55.561464001819623
20
-63.325038043155018
10
0.57500004713366704
20
-63.325038043155018
42
-0.4142135623730957
0
ENDSEC
0
SECTION
2
OBJECTS
0
DICTIONARY
5
C
100
AcDbDictionary
3
ACAD_GROUP
350
D
3
ACAD_MLINESTYLE
350
17
0
DICTIONARY
5
D
100
AcDbDictionary
0
DICTIONARY
5
1A
330
C
100
AcDbDictionary
0
DICTIONARY
5
17
100
AcDbDictionary
0
ENDSEC
0
EOF
