0
SECTION
2
HEADER
9
$INSUNITS
70
4
9
$ACADVER
1
AC1014
9
$HANDSEED
5
FFFF
0
ENDSEC
0
SECTION
2
TABLES
0
TABLE
2
VPORT
5
8
100
AcDbSymbolTable
0
ENDTAB
0
TABLE
2
LTYPE
5
5
100
AcDbSymbolTable
0
LTYPE
5
14
100
AcDbSymbolTableRecord
100
AcDbLinetypeTableRecord
2
BYBLOCK
70
0
0
LTYPE
5
15
100
AcDbSymbolTableRecord
100
AcDbLinetypeTableRecord
2
BYLAYER
70
0
0
ENDTAB
0
TABLE
2
LAYER
5
2
100
AcDbSymbolTable
70
2
0
LAYER
5
50
100
AcDbSymbolTableRecord
100
AcDbLayerTableRecord
2
0
70
0
6
CONTINUOUS
0
ENDTAB
0
TABLE
2
STYLE
5
3
100
AcDbSymbolTable
70
1
0
STYLE
5
11
100
AcDbSymbolTableRecord
100
AcDbTextStyleTableRecord
2
STANDARD
70
0
0
ENDTAB
0
TABLE
2
VIEW
5
6
100
AcDbSymbolTable
70
0
0
ENDTAB
0
TABLE
2
UCS
5
7
100
AcDbSymbolTable
70
0
0
ENDTAB
0
TABLE
2
APPID
5
9
100
AcDbSymbolTable
70
2
0
APPID
5
12
100
AcDbSymbolTableRecord
100
AcDbRegAppTableRecord
2
ACAD
70
0
0
ENDTAB
0
TABLE
2
DIMSTYLE
5
A
100
AcDbSymbolTable
70
1
0
ENDTAB
0
TABLE
2
BLOCK_RECORD
5
1
100
AcDbSymbolTable
70
1
0
BLOCK_RECORD
5
1F
100
AcDbSymbolTableRecord
100
AcDbBlockTableRecord
2
*MODEL_SPACE
0
BLOCK_RECORD
5
1B
100
AcDbSymbolTableRecord
100
AcDbBlockTableRecord
2
*PAPER_SPACE
0
ENDTAB
0
ENDSEC
0
SECTION
2
BLOCKS
0
BLOCK
5
20
100
AcDbEntity
100
AcDbBlockBegin
2
*MODEL_SPACE
0
ENDBLK
5
21
100
AcDbEntity
100
AcDbBlockEnd
0
BLOCK
5
1C
100
AcDbEntity
100
AcDbBlockBegin
2
*PAPER_SPACE
0
ENDBLK
5
1D
100
AcDbEntity
100
AcDbBlockEnd
0
ENDSEC
0
SECTION
2
ENTITIES
0
LWPOLYLINE
5
100
100
AcDbEntity
8
0
100
AcDbPolyline
90
18
70
1
43
0.0
10
-120.18013934935738
20
-22.375002162497157
42
0.41421356237311646
10
-122.18013934935725
20
-24.375002162497346
10
-122.18013934935725
20
-24.525002162497088
10
-127.68013934935723
20
-24.525002162496893
10
-127.6801393493572
20
-23.0250021624969
10
-129.1801393493572
20
-23.025002162496847
10
-129.1801393493572
20
-21.025002162496843
10
-127.68013934935722
20
-21.025002162496847
10
-127.68013934935722
20
-19.525002162496847
10
-123.48013934935722
20
-19.525002162496854
42
0.41421356237309048
10
-122.4801393493553
20
-18.525002162494935
10
-122.4801393493553
20
-17.375002162497253
10
-117.2801393493553
20
-17.375002162497264
10
-117.28013934935534
20
-18.875002162497267
10
-115.28013934935535
20
-18.875002162497335
10
-115.28013934935544
20
-20.875002162497328
10
-117.28013934935549
20
-20.87500216249726
10
-117.28013934935552
20
-22.37500216249726
0
LWPOLYLINE
5
101
100
AcDbEntity
8
0
100
AcDbPolyline
90
18
70
1
43
0.0
10
-63.180139349357212
20
-15.275002162497159
42
0.41421356237313145
10
-65.180139349357233
20
-17.275002162497287
10
-65.180139349357248
20
-17.425002162497091
10
-70.680139349357248
20
-17.425002162496895
10
-70.680139349357219
20
-15.925002162496895
10
-72.180139349357219
20
-15.925002162496842
10
-72.180139349357219
20
-13.925002162496845
10
-70.680139349357233
20
-13.925002162496849
10
-70.680139349357219
20
-12.425002162496845
10
-66.480139349357216
20
-12.425002162496854
42
0.41421356237308854
10
-65.480139349355298
20
-11.425002162494945
10
-65.480139349355284
20
-10.275002162497255
10
-60.280139349355295
20
-10.275002162497264
10
-60.280139349355338
20
-11.775002162497268
10
-58.280139349355352
20
-11.775002162497332
10
-58.280139349355451
20
-13.775002162497332
10
-60.28013934935548
20
-13.775002162497266
10
-60.280139349355515
20
-15.275002162497259
0
LWPOLYLINE
5
102
100
AcDbEntity
8
0
100
AcDbPolyline
90
18
70
1
43
0.0
10
-63.180139349357212
20
-34.275002162497159
10
-60.280139349355515
20
-34.275002162497259
10
-60.28013934935548
20
-32.775002162497266
10
-58.280139349355451
20
-32.775002162497337
10
-58.280139349355352
20
-30.775002162497334
10
-60.280139349355338
20
-30.775002162497273
10
-60.280139349355295
20
-29.275002162497266
10
-65.480139349355284
20
-29.275002162497259
10
-65.480139349355284
20
-30.425002162494941
42
-0.41421356237308982
10
-66.480139349357216
20
-31.42500216249686
10
-70.680139349357219
20
-31.425002162496849
10
-70.680139349357233
20
-32.925002162496853
10
-72.180139349357219
20
-32.925002162496845
10
-72.180139349357219
20
-34.925002162496845
10
-70.680139349357219
20
-34.925002162496895
10
-70.680139349357248
20
-36.425002162496895
10
-65.180139349357248
20
-36.425002162497087
10
-65.180139349357233
20
-36.275002162497287
42
-0.41421356237313145
0
LWPOLYLINE
5
103
100
AcDbEntity
8
0
100
AcDbPolyline
90
18
70
1
43
0.0
10
-103.48013934935528
20
-55.375002162497253
10
-103.4801393493553
20
-56.525002162494935
42
-0.41421356237308982
10
-104.48013934935723
20
-57.525002162496854
10
-108.68013934935723
20
-57.525002162496847
10
-108.68013934935723
20
-59.025002162496847
10
-110.18013934935722
20
-59.025002162496847
10
-110.18013934935722
20
-61.025002162496847
10
-108.68013934935723
20
-61.025002162496904
10
-108.68013934935725
20
-62.525002162496897
10
-103.18013934935723
20
-62.525002162497088
10
-103.18013934935723
20
-62.375002162497346
42
-0.41421356237311324
10
-101.18013934935739
20
-60.375002162497154
10
-98.280139349355522
20
-60.37500216249726
10
-98.28013934935548
20
-58.875002162497267
10
-96.280139349355466
20
-58.875002162497331
10
-96.280139349355366
20
-56.875002162497339
10
-98.280139349355352
20
-56.875002162497267
10
-98.280139349355281
20
-55.37500216249726
0
LWPOLYLINE
5
104
100
AcDbEntity
8
0
100
AcDbPolyline
90
18
70
1
43
0.0
10
-7.1615504730425874
20
-71.335522756307
10
-6.1615504730425279
20
-69.603471948738147
10
-7.8936012806113371
20
-68.603471948738047
10
-8.8936012806113922
20
-70.335522756306901
10
-10.192639386288032
20
-69.585522756306844
10
-12.792639386288037
20
-74.088854855985915
10
-11.796710171889844
20
-74.66385485601252
42
-0.4142135623568291
10
-11.430684768152819
20
-76.029880259771843
10
-13.530684768152813
20
-79.667186955666438
10
-12.231646662476155
20
-80.417186955666466
10
-12.981646662476138
20
-81.716225061343124
10
-11.249595854907284
20
-82.716225061343096
10
-10.499595854907238
20
-81.417186955666452
10
-9.2005577492305903
20
-82.167186955666523
10
-6.4505577492304234
20
-77.404047234852172
10
-6.5804615598118152
20
-77.329047234844239
42
-0.41421356237078077
10
-7.312512367366903
20
-74.596996427283344
10
-5.8625123673659552
20
-72.085522756307029
0
LWPOLYLINE
5
105
100
AcDbEntity
8
0
100
AcDbPolyline
90
18
70
1
43
0.0
10
-32.680139349357241
20
-41.200002162496894
10
-27.180139349357233
20
-41.200002162497086
10
-27.18013934935723
20
-41.050002162481235
42
-0.41421356237077844
10
-25.180139349357226
20
-39.050002162497158
10
-22.280139349355508
20
-39.050002162497258
10
-22.280139349355473
20
-37.550002162497265
10
-20.280139349355444
20
-37.550002162497329
10
-20.280139349355348
20
-35.550002162497336
10
-22.280139349355341
20
-35.550002162497265
10
-22.280139349355288
20
-34.050002162497265
10
-27.480139349355284
20
-34.050002162497258
10
-27.480139349355284
20
-35.200002162550483
42
-0.4142135623568271
10
-28.480139349357234
20
-36.200002162496851
10
-32.680139349357219
20
-36.200002162496844
10
-32.680139349357226
20
-37.700002162496851
10
-34.180139349357212
20
-37.700002162496844
10
-34.180139349357212
20
-39.700002162496844
10
-32.680139349357205
20
-39.700002162496894
0
LWPOLYLINE
5
106
100
AcDbEntity
8
0
100
AcDbPolyline
90
18
70
1
43
0.0
10
-61.280139349357242
20
-77.525002162496889
10
-55.780139349357242
20
-77.525002162497088
10
-55.780139349357242
20
-77.375002162481238
42
-0.41421356237077844
10
-53.780139349357228
20
-75.375002162497154
10
-50.880139349355517
20
-75.375002162497267
10
-50.880139349355474
20
-73.875002162497267
10
-48.880139349355446
20
-73.875002162497324
10
-48.880139349355353
20
-71.875002162497339
10
-50.880139349355346
20
-71.875002162497267
10
-50.880139349355289
20
-70.375002162497267
10
-56.080139349355285
20
-70.375002162497253
10
-56.080139349355285
20
-71.525002162550479
42
-0.41421356235682577
10
-57.080139349357239
20
-72.525002162496847
10
-61.280139349357221
20
-72.525002162496847
10
-61.280139349357228
20
-74.025002162496847
10
-62.780139349357214
20
-74.025002162496847
10
-62.780139349357214
20
-76.025002162496833
10
-61.280139349357214
20
-76.025002162496889
0
LWPOLYLINE
5
107
100
AcDbEntity
8
0
100
AcDbPolyline
90
18
70
1
43
0.0
10
-30.261938158707231
20
-74.994202861411154
10
-35.284752455410377
20
-73.648343826878033
10
-35.582394357292053
20
-74.759158527161873
42
-0.41421356235682649
10
-36.807139228671645
20
-75.466265308296116
10
-40.86402769908571
20
-74.379225318865522
10
-41.252256266739494
20
-75.828114058299136
10
-42.701145006173078
20
-75.439885490645352
10
-43.218783096378111
20
-77.371737143223484
10
-41.769894356944526
20
-77.759965710877324
10
-42.158122924598345
20
-79.208854450310909
10
-36.845530880008511
20
-80.632359198374957
10
-36.806708023239011
20
-80.487470324416307
42
-0.41421356237078122
10
-34.357218280459975
20
-79.073256762058577
10
-31.556033384220047
20
-79.823831992856427
10
-31.167804816566232
20
-78.374943253422842
10
-29.235953163988093
20
-78.892581343627953
10
-28.718315073782954
20
-76.960729691049863
10
-30.650166726361068
20
-76.443091600844738
0
LWPOLYLINE
5
108
100
AcDbEntity
8
0
100
AcDbPolyline
90
18
70
1
43
0.0
10
-84.480139349355298
20
-50.675002162497258
10
-84.480139349355284
20
-51.825002162549893
42
-0.41421356235699486
10
-85.480139349357216
20
-52.825002162496858
10
-89.680139349357205
20
-52.825002162496844
10
-89.680139349357205
20
-54.325002162496851
10
-91.180139349357205
20
-54.325002162496851
10
-91.180139349357205
20
-56.325002162496844
10
-89.680139349357191
20
-56.325002162496894
10
-89.680139349357233
20
-57.825002162496901
10
-84.180139349357233
20
-57.825002162497093
10
-84.180139349357233
20
-57.675002162485747
42
-0.41421356237144052
10
-82.180139349357205
20
-55.675002162497158
10
-79.280139349355508
20
-55.675002162497265
10
-79.28013934935548
20
-54.175002162497272
10
-77.280139349355451
20
-54.175002162497336
10
-77.280139349355352
20
-52.175002162497336
10
-79.280139349355338
20
-52.175002162497265
10
-79.280139349355295
20
-50.675002162497265
0
LWPOLYLINE
5
109
100
AcDbEntity
8
0
100
AcDbPolyline
90
18
70
1
43
0.0
10
-101.18013934935739
20
-22.375002162497157
42
0.41421356237311391
10
-103.18013934935723
20
-24.375002162497346
10
-103.18013934935723
20
-24.525002162497088
10
-108.68013934935725
20
-24.525002162496893
10
-108.68013934935723
20
-23.0250021624969
10
-110.18013934935722
20
-23.025002162496847
10
-110.18013934935722
20
-21.025002162496843
10
-108.68013934935723
20
-21.025002162496847
10
-108.68013934935723
20
-19.525002162496847
10
-104.48013934935723
20
-19.525002162496854
42
0.41421356237309048
10
-103.4801393493553
20
-18.525002162494935
10
-103.48013934935528
20
-17.375002162497253
10
-98.280139349355281
20
-17.375002162497264
10
-98.280139349355352
20
-18.875002162497267
10
-96.280139349355366
20
-18.875002162497335
10
-96.280139349355466
20
-20.875002162497331
10
-98.28013934935548
20
-20.875002162497264
10
-98.280139349355522
20
-22.37500216249726
0
LWPOLYLINE
5
110
100
AcDbEntity
8
0
100
AcDbPolyline
90
18
70
1
43
0.0
10
-82.180139349357205
20
-17.675002162497158
42
0.41421356237144052
10
-84.180139349357233
20
-19.675002162485743
10
-84.180139349357233
20
-19.825002162497089
10
-89.680139349357233
20
-19.825002162496894
10
-89.680139349357191
20
-18.325002162496894
10
-91.180139349357205
20
-18.32500216249684
10
-91.180139349357205
20
-16.325002162496844
10
-89.680139349357205
20
-16.325002162496848
10
-89.680139349357205
20
-14.825002162496846
10
-85.480139349357216
20
-14.825002162496855
42
0.41421356235699552
10
-84.480139349355312
20
-13.82500216254989
10
-84.480139349355298
20
-12.675002162497256
10
-79.280139349355295
20
-12.675002162497266
10
-79.280139349355338
20
-14.175002162497268
10
-77.280139349355352
20
-14.175002162497332
10
-77.280139349355451
20
-16.175002162497332
10
-79.28013934935548
20
-16.175002162497265
10
-79.280139349355508
20
-17.675002162497261
0
LWPOLYLINE
5
111
100
AcDbEntity
8
0
100
AcDbPolyline
90
18
70
1
43
0.0
10
-32.680139349357241
20
-60.225002162496892
10
-27.180139349357233
20
-60.225002162497091
10
-27.180139349357226
20
-60.07500216248124
42
-0.41421356237077844
10
-25.180139349357226
20
-58.075002162497157
10
-22.280139349355508
20
-58.075002162497256
10
-22.280139349355473
20
-56.575002162497263
10
-20.280139349355444
20
-56.575002162497334
10
-20.280139349355348
20
-54.575002162497334
10
-22.280139349355341
20
-54.57500216249727
10
-22.280139349355288
20
-53.07500216249727
10
-27.480139349355284
20
-53.075002162497249
10
-27.480139349355284
20
-54.225002162550481
42
-0.41421356235682838
10
-28.480139349357234
20
-55.225002162496857
10
-32.680139349357219
20
-55.225002162496835
10
-32.680139349357226
20
-56.725002162496843
10
-34.180139349357212
20
-56.725002162496843
10
-34.180139349357212
20
-58.725002162496835
10
-32.680139349357205
20
-58.725002162496892
0
LWPOLYLINE
5
112
100
AcDbEntity
8
0
100
AcDbPolyline
90
18
70
1
43
0.0
10
-82.180139349357205
20
-36.675002162497158
10
-79.280139349355508
20
-36.675002162497265
10
-79.28013934935548
20
-35.175002162497265
10
-77.280139349355451
20
-35.175002162497336
10
-77.280139349355352
20
-33.175002162497336
10
-79.280139349355338
20
-33.175002162497272
10
-79.280139349355295
20
-31.675002162497272
10
-84.480139349355298
20
-31.675002162497258
10
-84.480139349355284
20
-32.825002162549886
42
-0.41421356235699619
10
-85.480139349357216
20
-33.825002162496858
10
-89.680139349357205
20
-33.825002162496844
10
-89.680139349357205
20
-35.325002162496851
10
-91.180139349357205
20
-35.325002162496844
10
-91.180139349357205
20
-37.325002162496844
10
-89.680139349357191
20
-37.325002162496894
10
-89.680139349357233
20
-38.825002162496894
10
-84.180139349357233
20
-38.825002162497093
10
-84.180139349357233
20
-38.67500216248574
42
-0.41421356237144052
0
LWPOLYLINE
5
113
100
AcDbEntity
8
0
100
AcDbPolyline
90
18
70
1
43
0.0
10
-120.18013934935738
20
-41.375002162497161
10
-117.28013934935552
20
-41.37500216249726
10
-117.28013934935549
20
-39.875002162497267
10
-115.28013934935544
20
-39.875002162497324
10
-115.28013934935535
20
-37.875002162497331
10
-117.28013934935534
20
-37.875002162497267
10
-117.2801393493553
20
-36.375002162497267
10
-122.4801393493553
20
-36.37500216249726
10
-122.48013934935528
20
-37.525002162494935
42
-0.41421356237309243
10
-123.48013934935722
20
-38.525002162496861
10
-127.68013934935722
20
-38.525002162496847
10
-127.68013934935722
20
-40.025002162496854
10
-129.1801393493572
20
-40.025002162496847
10
-129.1801393493572
20
-42.025002162496847
10
-127.6801393493572
20
-42.025002162496897
10
-127.68013934935723
20
-43.525002162496889
10
-122.18013934935725
20
-43.525002162497088
10
-122.18013934935723
20
-43.375002162497353
42
-0.41421356237311713
0
CIRCLE
5
114
100
AcDbEntity
8
0
100
AcDbCircle
10
-25.676924267317638
20
-69.510003974405535
30
0
40
2.0000000000000018
210
0
220
0
230
1
0
CIRCLE
5
115
100
AcDbEntity
8
0
100
AcDbCircle
10
-115.42699995286632
20
-25.760038043155021
30
0
40
1.9999999999999929
210
0
220
0
230
1
0
CIRCLE
5
116
100
AcDbEntity
8
0
100
AcDbCircle
10
-2.6769242673176126
20
-63.260003974405521
30
0
40
1.9999999999999956
210
0
220
0
230
1
0
LWPOLYLINE
5
117
100
AcDbEntity
8
0
100
AcDbPolyline
90
18
70
1
43
0.0
10
-122.4801393493553
20
-55.375002162497253
10
-122.48013934935528
20
-56.525002162494935
42
-0.41421356237308982
10
-123.48013934935722
20
-57.525002162496854
10
-127.68013934935722
20
-57.525002162496847
10
-127.68013934935722
20
-59.025002162496847
10
-129.1801393493572
20
-59.025002162496847
10
-129.1801393493572
20
-61.025002162496847
10
-127.6801393493572
20
-61.025002162496904
10
-127.68013934935723
20
-62.525002162496897
10
-122.18013934935725
20
-62.525002162497088
10
-122.18013934935725
20
-62.375002162497353
42
-0.41421356237311713
10
-120.18013934935738
20
-60.375002162497154
10
-117.28013934935552
20
-60.37500216249726
10
-117.28013934935549
20
-58.875002162497267
10
-115.28013934935544
20
-58.875002162497331
10
-115.28013934935535
20
-56.875002162497339
10
-117.28013934935534
20
-56.875002162497267
10
-117.2801393493553
20
-55.37500216249726
0
CIRCLE
5
118
100
AcDbEntity
8
0
100
AcDbCircle
10
-72.176999952866325
20
-61.760038043155021
30
0
40
2.0000000000000018
210
0
220
0
230
1
0
LWPOLYLINE
5
119
100
AcDbEntity
8
0
100
AcDbPolyline
90
18
70
1
43
0.0
10
-32.680139349357241
20
-22.175002162496895
10
-27.180139349357233
20
-22.175002162497091
10
-27.18013934935723
20
-22.025002162481243
42
-0.41421356237077911
10
-25.180139349357226
20
-20.025002162497159
10
-22.280139349355508
20
-20.025002162497259
10
-22.280139349355473
20
-18.525002162497266
10
-20.280139349355444
20
-18.525002162497334
10
-20.280139349355348
20
-16.525002162497337
10
-22.280139349355341
20
-16.52500216249727
10
-22.280139349355288
20
-15.025002162497266
10
-27.480139349355284
20
-15.025002162497255
10
-27.480139349355284
20
-16.175002162550484
42
-0.4142135623568271
10
-28.480139349357234
20
-17.175002162496856
10
-32.680139349357219
20
-17.175002162496845
10
-32.680139349357226
20
-18.675002162496849
10
-34.180139349357212
20
-18.675002162496845
10
-34.180139349357212
20
-20.675002162496842
10
-32.680139349357205
20
-20.675002162496895
0
LWPOLYLINE
5
120
100
AcDbEntity
8
0
100
AcDbPolyline
90
18
70
1
43
0.0
10
-51.680139349357248
20
-19.825002162496894
10
-46.180139349357241
20
-19.825002162497089
10
-46.180139349357233
20
-19.675002162481242
42
-0.41421356237077911
10
-44.180139349357226
20
-17.675002162497158
10
-41.280139349355515
20
-17.675002162497261
10
-41.28013934935548
20
-16.175002162497265
10
-39.280139349355451
20
-16.175002162497332
10
-39.280139349355352
20
-14.175002162497334
10
-41.280139349355345
20
-14.175002162497268
10
-41.280139349355295
20
-12.675002162497265
10
-46.480139349355284
20
-12.675002162497256
10
-46.480139349355284
20
-13.825002162550481
42
-0.4142135623568271
10
-47.480139349357238
20
-14.825002162496855
10
-51.680139349357219
20
-14.825002162496846
10
-51.680139349357226
20
-16.325002162496848
10
-53.180139349357212
20
-16.325002162496844
10
-53.180139349357212
20
-18.32500216249684
10
-51.680139349357212
20
-18.325002162496894
0
CIRCLE
5
121
100
AcDbEntity
8
0
100
AcDbCircle
10
-115.42699995286632
20
-44.510038043155021
30
0
40
1.9999999999999929
210
0
220
0
230
1
0
LWPOLYLINE
5
122
100
AcDbEntity
8
0
100
AcDbPolyline
90
18
70
1
43
0.0
10
-65.480139349355284
20
-48.275002162497252
10
-65.480139349355284
20
-49.425002162494948
42
-0.41421356237308721
10
-66.480139349357216
20
-50.425002162496853
10
-70.680139349357219
20
-50.425002162496845
10
-70.680139349357233
20
-51.925002162496845
10
-72.180139349357219
20
-51.925002162496845
10
-72.180139349357219
20
-53.925002162496838
10
-70.680139349357219
20
-53.925002162496895
10
-70.680139349357248
20
-55.425002162496895
10
-65.180139349357248
20
-55.425002162497094
10
-65.180139349357248
20
-55.27500216249728
42
-0.41421356237313017
10
-63.180139349357212
20
-53.275002162497159
10
-60.280139349355515
20
-53.275002162497259
10
-60.28013934935548
20
-51.775002162497266
10
-58.280139349355451
20
-51.77500216249733
10
-58.280139349355352
20
-49.775002162497337
10
-60.280139349355338
20
-49.775002162497266
10
-60.280139349355295
20
-48.275002162497259
0
LWPOLYLINE
5
123
100
AcDbEntity
8
0
100
AcDbPolyline
90
18
70
1
43
0.0
10
-101.18013934935739
20
-41.375002162497161
10
-98.280139349355522
20
-41.37500216249726
10
-98.28013934935548
20
-39.875002162497267
10
-96.280139349355466
20
-39.875002162497339
10
-96.280139349355366
20
-37.875002162497331
10
-98.280139349355352
20
-37.875002162497267
10
-98.280139349355281
20
-36.375002162497267
10
-103.48013934935528
20
-36.37500216249726
10
-103.4801393493553
20
-37.525002162494935
42
-0.41421356237309115
10
-104.48013934935723
20
-38.525002162496861
10
-108.68013934935723
20
-38.525002162496847
10
-108.68013934935723
20
-40.025002162496854
10
-110.18013934935722
20
-40.025002162496847
10
-110.18013934935722
20
-42.025002162496847
10
-108.68013934935723
20
-42.025002162496897
10
-108.68013934935725
20
-43.525002162496889
10
-103.18013934935723
20
-43.525002162497088
10
-103.18013934935723
20
-43.375002162497353
42
-0.41421356237311452
0
CIRCLE
5
124
100
AcDbEntity
8
0
100
AcDbCircle
10
-39.426924267317617
20
-22.010003974405521
30
0
40
2.0000000000000018
210
0
220
0
230
1
0
LWPOLYLINE
5
125
100
AcDbEntity
8
0
100
AcDbPolyline
90
18
70
1
43
0.0
10
-51.680139349357248
20
-38.825002162496894
10
-46.180139349357241
20
-38.825002162497093
10
-46.180139349357233
20
-38.675002162481242
42
-0.41421356237077911
10
-44.180139349357226
20
-36.675002162497158
10
-41.280139349355515
20
-36.675002162497265
10
-41.28013934935548
20
-35.175002162497265
10
-39.280139349355451
20
-35.175002162497336
10
-39.280139349355352
20
-33.175002162497336
10
-41.280139349355345
20
-33.175002162497272
10
-41.280139349355295
20
-31.675002162497265
10
-46.480139349355284
20
-31.675002162497258
10
-46.480139349355284
20
-32.825002162550483
42
-0.4142135623568271
10
-47.480139349357238
20
-33.825002162496858
10
-51.680139349357219
20
-33.825002162496844
10
-51.680139349357226
20
-35.325002162496851
10
-53.180139349357212
20
-35.325002162496844
10
-53.180139349357212
20
-37.325002162496844
10
-51.680139349357212
20
-37.325002162496894
0
CIRCLE
5
126
100
AcDbEntity
8
0
100
AcDbCircle
10
-17.176924267317606
20
-54.760003974405521
30
0
40
2.0000000000000018
210
0
220
0
230
1
0
LWPOLYLINE
5
127
100
AcDbEntity
8
0
100
AcDbPolyline
90
18
70
1
43
0.0
10
-51.680139349357248
20
-57.825002162496901
10
-46.180139349357241
20
-57.825002162497093
10
-46.180139349357241
20
-57.675002162481242
42
-0.41421356237077844
10
-44.180139349357226
20
-55.675002162497158
10
-41.280139349355515
20
-55.675002162497265
10
-41.28013934935548
20
-54.175002162497272
10
-39.280139349355451
20
-54.175002162497336
10
-39.280139349355352
20
-52.175002162497336
10
-41.280139349355345
20
-52.175002162497265
10
-41.280139349355295
20
-50.675002162497265
10
-46.480139349355284
20
-50.675002162497258
10
-46.480139349355284
20
-51.82500216255049
42
-0.41421356235682577
10
-47.480139349357238
20
-52.825002162496858
10
-51.680139349357219
20
-52.825002162496844
10
-51.680139349357226
20
-54.325002162496851
10
-53.180139349357212
20
-54.325002162496851
10
-53.180139349357212
20
-56.325002162496844
10
-51.680139349357212
20
-56.325002162496894
0
LWPOLYLINE
5
128
100
AcDbEntity
8
0
100
AcDbPolyline
90
37
70
1
43
0.0
10
-15.280345675220774
20
-91.344528957000392
10
-29.725969516708886
20
-82.999851690859018
42
0.098933339546939461
10
-29.911559718250601
20
-82.93698518313532
10
-67.140475486126491
20
-78.093167101577464
42
-0.20558760429502526
10
-67.479871109026845
20
-77.892065770893851
10
-77.954651316774985
20
-63.536619925289415
42
0.23953788988378003
10
-78.358557714880632
20
-63.331339489569288
10
-133.42210257013124
20
-63.331339489569288
42
-0.41421356237305862
10
-133.92210257013124
20
-62.831339489569295
10
-133.92210257013124
20
-7.5098110053571698
42
-0.41421356237305795
10
-133.42210257013124
20
-7.0098110053571725
10
-96.373781105241278
20
-7.0098110053571645
42
0.41421356237309115
10
-95.873781105241278
20
-6.5098110053571645
10
-95.873781105241292
20
-2.7537708222459578
42
-0.41421356237307
10
-95.373781105241292
20
-2.253770822245956
10
-77.349620372796295
20
-2.2537708222459281
42
0.41421356237309764
10
-76.849620372796295
20
-1.7537708222459256
10
-76.849620372796295
20
-0.50090968287743265
42
-0.41421356237309814
10
-76.349620372796295
20
-0.00090968287743249665
10
-59.326731257848422
20
-0.00090968287743860288
42
-0.41421356237309537
10
-58.826731257848422
20
-0.50090968287743742
10
-58.826731257848422
20
-1.7537708222459247
42
0.41421356237309537
10
-58.326731257848429
20
-2.2537708222459236
10
-40.302569570516418
20
-2.2537708222459214
42
-0.41421356237309598
10
-39.802569570516425
20
-2.7537708222459214
10
-39.802569570516418
20
-4.2569498659886804
42
0.41421356237309798
10
-39.302569570516411
20
-4.7569498659886795
10
-21.278408599349685
20
-4.7569498659886875
42
-0.41421356237309631
10
-20.778408599349689
20
-5.2569498659886884
10
-20.778408599349692
20
-6.5098110053571787
42
0.41421356237310281
10
-20.278408599349685
20
-7.0098110053571814
10
-0.50202182011950702
20
-7.0098110053571707
42
-0.41421356237309359
10
-0.0020218201195079666
20
-7.5098110053571698
10
-0.0020218201194885724
20
-67.412763456944603
42
-0.1315547473118473
10
-0.068913064101312482
20
-67.662597012457852
10
-0.22730831601115886
20
-67.937189312010773
10
-13.447123358909606
20
-90.853201882563468
42
-0.41438495729388564
0
ENDSEC
0
SECTION
2
OBJECTS
0
DICTIONARY
5
C
100
AcDbDictionary
3
ACAD_GROUP
350
D
3
ACAD_MLINESTYLE
350
17
0
DICTIONARY
5
D
100
AcDbDictionary
0
DICTIONARY
5
1A
330
C
100
AcDbDictionary
0
DICTIONARY
5
17
100
AcDbDictionary
0
ENDSEC
0
EOF
